<svg xmlns="http://www.w3.org/2000/svg" viewBox="0 -1 8 13" width="8" height="13">
  <path d="M5.48 7.34v-.27c-.25.32-.51.58-.79.8a2.9 2.9 0 01-.9.48c-.32.1-.7.15-1.11.15-.5 0-.96-.1-1.36-.31a2.3 2.3 0 01-.93-.87A3.85 3.85 0 010 5.4V1.25C0 .83.1.52.28.31.48.11.72 0 1.03 0a1 1 0 01.77.31c.2.21.29.53.29.94v3.36c0 .48.04.89.12 1.22.08.33.23.59.44.77.21.2.5.29.86.29.35 0 .68-.11 1-.32.3-.2.53-.48.67-.82.12-.3.18-.95.18-1.95V1.25c0-.41.1-.73.3-.94.18-.2.44-.31.75-.31.3 0 .56.1.75.31.19.2.28.52.28.94v6.07c0 .4-.09.7-.27.9a.9.9 0 01-.7.3.9.9 0 01-.7-.31c-.2-.2-.29-.5-.29-.87zM.72 9.68h6.36a.72.72 0 010 1.44H.72a.72.72 0 010-1.44z"/>
</svg>
