<svg width="12" height="14" xmlns="http://www.w3.org/2000/svg">

 <g>
  <title>background</title>
  <rect fill="none" id="canvas_background" height="402" width="582" y="-1" x="-1"/>
 </g>
 <g>
  <title>Layer 1</title>
  <path stroke="null" id="svg_1" d="m0.046352,14.075888l11.857706,0l0,-1.556976l-11.857706,0l0,1.556976zm5.929288,-3.114753c2.80696,0 5.081625,-2.091987 5.081625,-4.671729l0,0l0,-6.229507l-2.117852,0l0,6.229507c0,1.504917 -1.326816,2.725509 -2.964644,2.725509l0,0c-1.636958,0 -2.964644,-1.219792 -2.964644,-2.725509l0,0l0,-6.229507l-2.117852,0l0,6.229507c0,2.580544 2.275537,4.671729 5.081625,4.671729l0,0l0.001742,0z"/>
 </g>
</svg>